<svg width="14" height="16" viewBox="0 0 14 16" fill="none" xmlns="http://www.w3.org/2000/svg">
<path fill-rule="evenodd" clip-rule="evenodd" d="M9.82001 2H12C13.1 2 14 2.89999 14 4V14C14 15.1 13.1 16 12 16H2C0.900024 16 0 15.1 0 14V4C0 2.89999 0.900024 2 2 2H4.17999C4.59998 0.839996 5.70001 0 7 0C8.29999 0 9.40002 0.839996 9.82001 2ZM8 3C8 2.45001 7.54999 2 7 2C6.45001 2 6 2.45001 6 3C6 3.54999 6.45001 4 7 4C7.54999 4 8 3.54999 8 3ZM2 4V14H12V4H11V6C11 6.55228 10.5523 7 10 7H4C3.44769 7 3 6.55228 3 6V4H2Z" fill="black"/>
</svg>
